<svg width="21" height="21" viewBox="0 0 21 21" fill="none" xmlns="http://www.w3.org/2000/svg">
<path fill-rule="evenodd" clip-rule="evenodd" d="M11 19.2687C16.055 19.2687 20.137 15.1007 19.996 10.0137C19.866 5.31774 15.951 1.40274 11.255 1.27274C6.16803 1.13174 2.00003 5.21374 2.00003 10.2687C2.00003 11.6257 2.30103 12.9127 2.83803 14.0677L1.68003 19.6107L7.21303 18.4357C8.36503 18.9707 9.64803 19.2687 11 19.2687V19.2687Z" stroke="#53565A" stroke-width="1.5" stroke-linecap="round" stroke-linejoin="round"/>
<path d="M10.8232 10.0959C10.7256 10.1936 10.7256 10.3519 10.8232 10.4495C10.9209 10.5471 11.0791 10.5471 11.1768 10.4495C11.2744 10.3519 11.2744 10.1936 11.1768 10.0959C11.0791 9.9983 10.9209 9.9983 10.8232 10.0959" stroke="#53565A" stroke-width="1.5" stroke-linecap="round" stroke-linejoin="round"/>
<path d="M6.82322 10.0959C6.72559 10.1936 6.72559 10.3519 6.82322 10.4495C6.92085 10.5471 7.07915 10.5471 7.17678 10.4495C7.27441 10.3519 7.27441 10.1936 7.17678 10.0959C7.07915 9.9983 6.92085 9.9983 6.82322 10.0959" stroke="black" stroke-width="1.5" stroke-linecap="round" stroke-linejoin="round"/>
<path d="M14.8232 10.0959C14.7256 10.1936 14.7256 10.3519 14.8232 10.4495C14.9209 10.5471 15.0791 10.5471 15.1768 10.4495C15.2744 10.3519 15.2744 10.1936 15.1768 10.0959C15.0791 9.9983 14.9209 9.9983 14.8232 10.0959" stroke="black" stroke-width="1.5" stroke-linecap="round" stroke-linejoin="round"/>
</svg>
